<svg width="447" height="101" viewBox="0 0 447 101" fill="none" xmlns="http://www.w3.org/2000/svg">
<g filter="url(#filter0_d_6_11)">
<g clip-path="url(#clip0_6_11)">
<path d="M344 -2L390 37.5L349.5 68.5H347H344" stroke="#333B7C" stroke-width="7" stroke-linecap="square" stroke-linejoin="round"/>
</g>
<path d="M392.5 36.5L340.001 72.0391L340 -3L392.5 36.5Z" fill="#333B7C"/>
<rect width="341" height="72" fill="#333B7C"/>
</g>
<path d="M86.689 19.5103C86.4992 19.5087 86.3098 19.5089 86.121 19.5107C84.1794 19.5301 82.2974 19.7324 80.4915 20.1732C76.392 21.1739 72.662 23.3738 69.3957 27.5121C69.7061 28.3031 70.1087 29.0665 70.6168 29.7749L69.5093 30.527C67.7819 28.119 67.1579 25.2487 67.2151 22.6267C63.0794 27.6192 63.0241 33.2072 65.109 37.4746C67.3733 42.1094 72.1199 45.0878 77.0261 43.9656C81.0508 41.96 84.1205 38.1103 84.7018 31.7036L86.0473 31.8191C85.4268 38.657 81.9766 43.01 77.5139 45.1967L77.5154 45.2024C77.5074 45.2045 77.4993 45.2061 77.4912 45.208C77.2544 45.3237 77.0146 45.4337 76.7722 45.537C72.3654 47.4186 67.161 47.3557 62.6561 45.8734C63.042 46.6353 63.7802 47.5282 64.8506 48.3881C66.477 49.6947 68.7804 50.9313 71.3596 51.7308C76.4683 53.314 82.5673 53.2079 86.998 48.9172C87.749 45.6022 88.1723 41.9303 88.1285 39.6239L89.4789 39.5996C89.5344 42.518 88.944 47.1279 87.8757 50.9579C91.71 46.6479 93.5175 42.6938 93.9557 39.2937C94.466 35.3344 93.1561 32.0962 90.9458 29.769C88.7356 27.4418 85.6064 26.0499 82.5244 25.8945C79.4424 25.7393 76.4331 26.7896 74.314 29.3543V29.3545C72.7827 31.2079 72.2165 32.6779 72.1937 33.6815C72.1711 34.685 72.5963 35.2591 73.3182 35.6287C74.7622 36.3679 77.5814 35.8981 79.2854 33.773V33.7728C80.1897 32.645 80.4661 31.8059 80.4546 31.3453C80.4432 30.8848 80.2819 30.7357 79.9051 30.6139C79.1518 30.3704 77.4558 30.8327 76.5578 32.3237L75.3926 31.6593C76.5816 29.6854 78.7256 28.8479 80.3311 29.3671C81.1338 29.6265 81.7817 30.3745 81.8049 31.3138C81.8281 32.253 81.3645 33.3163 80.3502 34.5812C78.2761 37.168 74.9041 37.9254 72.6893 36.7917C71.582 36.2249 70.8112 35.0876 70.8437 33.6526C70.8762 32.2177 71.6166 30.5221 73.2615 28.5312C75.6622 25.6256 79.1461 24.4088 82.5942 24.5826C83.2137 24.6137 83.8328 24.6897 84.446 24.8069C85.8196 22.3679 88.0977 20.7583 90.7528 19.7716C89.3747 19.6139 88.0184 19.5209 86.6891 19.5102L86.689 19.5103Z" fill="#FCFCFC"/>
<path d="M137.248 53.384C133.728 53.384 130.944 52.424 128.896 50.504C126.88 48.552 125.872 45.928 125.872 42.632C125.872 41.8 125.904 41.16 125.968 40.712L127.072 31.64C127.392 29.144 128.192 26.936 129.472 25.016C130.784 23.096 132.464 21.624 134.512 20.6C136.592 19.544 138.912 19.016 141.472 19.016C143.776 19.016 145.792 19.448 147.52 20.312C149.28 21.176 150.624 22.376 151.552 23.912C152.512 25.416 152.992 27.096 152.992 28.952C152.992 29.208 152.96 29.656 152.896 30.296V30.344C152.864 30.568 152.768 30.744 152.608 30.872C152.48 31 152.32 31.064 152.128 31.064H144.784C144.336 31.064 144.128 30.92 144.16 30.632C144.288 29.576 144.032 28.664 143.392 27.896C142.752 27.128 141.808 26.744 140.56 26.744C139.312 26.744 138.256 27.176 137.392 28.04C136.528 28.872 136.016 29.992 135.856 31.4L134.704 41C134.672 41.16 134.656 41.384 134.656 41.672C134.656 42.856 135.024 43.816 135.76 44.552C136.496 45.288 137.44 45.656 138.592 45.656C139.744 45.656 140.72 45.336 141.52 44.696C142.352 44.024 142.832 43.112 142.96 41.96L143.008 41.384C143.072 41.192 142.992 41.096 142.768 41.096H138.736C138.512 41.096 138.336 41.032 138.208 40.904C138.112 40.776 138.08 40.6 138.112 40.376L138.832 34.616C138.864 34.392 138.944 34.216 139.072 34.088C139.232 33.96 139.408 33.896 139.6 33.896H151.744C151.968 33.896 152.128 33.96 152.224 34.088C152.352 34.216 152.4 34.392 152.368 34.616L151.552 41.192C151.264 43.56 150.464 45.672 149.152 47.528C147.872 49.384 146.192 50.824 144.112 51.848C142.064 52.872 139.776 53.384 137.248 53.384ZM173.844 53C173.396 53 173.156 52.792 173.124 52.376L172.596 48.68C172.564 48.52 172.468 48.44 172.308 48.44H162.564C162.436 48.44 162.324 48.52 162.228 48.68L160.74 52.376C160.612 52.792 160.324 53 159.876 53H151.956C151.412 53 151.236 52.728 151.428 52.184L165.204 19.976C165.364 19.592 165.652 19.4 166.068 19.4H175.956C176.34 19.4 176.58 19.592 176.676 19.976L182.532 52.184V52.376C182.532 52.792 182.292 53 181.812 53H173.844ZM165.204 41.192C165.172 41.416 165.236 41.528 165.396 41.528H171.108C171.3 41.528 171.396 41.416 171.396 41.192L169.764 30.584C169.732 30.456 169.668 30.392 169.572 30.392C169.508 30.392 169.444 30.456 169.38 30.584L165.204 41.192ZM210.245 19.88C210.437 19.56 210.725 19.4 211.109 19.4H218.405C218.597 19.4 218.741 19.464 218.837 19.592C218.965 19.72 219.013 19.896 218.981 20.12L215.045 52.28C215.013 52.504 214.933 52.68 214.805 52.808C214.677 52.936 214.501 53 214.277 53H206.933C206.709 53 206.533 52.936 206.405 52.808C206.309 52.68 206.277 52.504 206.309 52.28L208.421 34.952C208.453 34.824 208.421 34.744 208.325 34.712C208.261 34.68 208.197 34.728 208.133 34.856L204.341 40.088C204.117 40.408 203.829 40.568 203.477 40.568H199.925C199.541 40.568 199.285 40.408 199.157 40.088L196.661 34.856C196.597 34.728 196.533 34.68 196.469 34.712C196.405 34.744 196.357 34.824 196.325 34.952L194.213 52.28C194.181 52.504 194.085 52.68 193.925 52.808C193.797 52.936 193.621 53 193.397 53H186.053C185.829 53 185.653 52.936 185.525 52.808C185.429 52.68 185.397 52.504 185.429 52.28L189.413 20.12C189.445 19.896 189.525 19.72 189.653 19.592C189.781 19.464 189.957 19.4 190.181 19.4H197.429C197.813 19.4 198.069 19.56 198.197 19.88L202.853 29.576C202.885 29.672 202.933 29.72 202.997 29.72C203.093 29.72 203.173 29.672 203.237 29.576L210.245 19.88ZM245.494 26.408C245.462 26.632 245.382 26.808 245.254 26.936C245.126 27.064 244.95 27.128 244.726 27.128H230.854C230.694 27.128 230.582 27.224 230.518 27.416L229.99 31.832C229.958 32.024 230.038 32.12 230.23 32.12H238.822C239.014 32.12 239.158 32.184 239.254 32.312C239.382 32.44 239.43 32.616 239.398 32.84L238.63 39.08C238.598 39.304 238.518 39.48 238.39 39.608C238.262 39.736 238.086 39.8 237.862 39.8H229.27C229.078 39.8 228.982 39.896 228.982 40.088L228.358 44.984C228.358 45.176 228.438 45.272 228.598 45.272H242.47C242.694 45.272 242.854 45.336 242.95 45.464C243.078 45.592 243.126 45.768 243.094 45.992L242.326 52.28C242.294 52.504 242.198 52.68 242.038 52.808C241.91 52.936 241.75 53 241.558 53H219.334C219.11 53 218.934 52.936 218.806 52.808C218.71 52.68 218.678 52.504 218.71 52.28L222.694 20.12C222.726 19.896 222.806 19.72 222.934 19.592C223.062 19.464 223.238 19.4 223.462 19.4H245.686C245.878 19.4 246.022 19.464 246.118 19.592C246.246 19.72 246.294 19.896 246.262 20.12L245.494 26.408ZM263.481 19.4C266.521 19.4 268.921 20.248 270.681 21.944C272.441 23.608 273.321 25.88 273.321 28.76C273.321 29.496 273.289 30.056 273.225 30.44C272.969 32.584 272.249 34.472 271.065 36.104C269.913 37.736 268.409 39 266.553 39.896C264.729 40.792 262.681 41.24 260.409 41.24H255.513C255.353 41.24 255.241 41.336 255.177 41.528L253.881 52.28C253.849 52.504 253.753 52.68 253.593 52.808C253.465 52.936 253.289 53 253.065 53H245.721C245.497 53 245.321 52.936 245.193 52.808C245.097 52.68 245.065 52.504 245.097 52.28L249.081 20.12C249.113 19.896 249.193 19.72 249.321 19.592C249.449 19.464 249.625 19.4 249.849 19.4H263.481ZM260.265 34.04C261.481 34.04 262.489 33.688 263.289 32.984C264.121 32.248 264.537 31.304 264.537 30.152C264.537 29.224 264.217 28.488 263.577 27.944C262.969 27.4 262.137 27.128 261.081 27.128H257.241C257.081 27.128 256.969 27.224 256.905 27.416L256.137 33.752C256.137 33.944 256.217 34.04 256.377 34.04H260.265ZM290.219 53C289.835 53 289.595 52.824 289.499 52.472L285.899 40.328C285.835 40.168 285.723 40.088 285.563 40.088H283.739C283.579 40.088 283.467 40.184 283.403 40.376L281.963 52.28C281.931 52.504 281.835 52.68 281.675 52.808C281.547 52.936 281.371 53 281.147 53H273.803C273.579 53 273.403 52.936 273.275 52.808C273.179 52.68 273.147 52.504 273.179 52.28L277.163 20.12C277.195 19.896 277.275 19.72 277.403 19.592C277.531 19.464 277.707 19.4 277.931 19.4H292.043C294.923 19.4 297.211 20.216 298.907 21.848C300.603 23.48 301.451 25.688 301.451 28.472C301.451 28.792 301.419 29.336 301.355 30.104C301.099 32.216 300.363 34.072 299.147 35.672C297.963 37.24 296.443 38.392 294.587 39.128C294.491 39.16 294.427 39.224 294.395 39.32C294.363 39.384 294.363 39.448 294.395 39.512L298.715 52.136C298.747 52.2 298.763 52.296 298.763 52.424C298.763 52.584 298.699 52.728 298.571 52.856C298.443 52.952 298.267 53 298.043 53H290.219ZM285.323 27.128C285.163 27.128 285.051 27.224 284.987 27.416L284.315 32.936C284.315 33.128 284.395 33.224 284.555 33.224H288.875C289.963 33.224 290.859 32.904 291.563 32.264C292.299 31.624 292.667 30.792 292.667 29.768C292.667 28.968 292.379 28.328 291.803 27.848C291.259 27.368 290.539 27.128 289.643 27.128H285.323ZM314.299 53.576C311.931 53.576 309.867 53.128 308.107 52.232C306.379 51.336 305.035 50.072 304.075 48.44C303.147 46.808 302.683 44.888 302.683 42.68C302.683 42.04 302.731 41.384 302.827 40.712L303.931 31.688C304.251 29.192 305.067 26.984 306.379 25.064C307.691 23.144 309.387 21.656 311.467 20.6C313.579 19.544 315.931 19.016 318.523 19.016C320.891 19.016 322.955 19.464 324.715 20.36C326.475 21.224 327.819 22.472 328.747 24.104C329.707 25.704 330.187 27.592 330.187 29.768C330.187 30.376 330.139 31.016 330.043 31.688L328.939 40.712C328.651 43.272 327.835 45.528 326.491 47.48C325.179 49.4 323.467 50.904 321.355 51.992C319.243 53.048 316.891 53.576 314.299 53.576ZM315.259 45.848C316.571 45.848 317.675 45.416 318.571 44.552C319.467 43.656 319.995 42.472 320.155 41L321.307 31.592C321.339 31.4 321.355 31.112 321.355 30.728C321.355 29.512 321.019 28.552 320.347 27.848C319.675 27.112 318.747 26.744 317.563 26.744C316.283 26.744 315.195 27.192 314.299 28.088C313.403 28.952 312.875 30.12 312.715 31.592L311.563 41C311.531 41.192 311.515 41.48 311.515 41.864C311.515 43.08 311.851 44.056 312.523 44.792C313.195 45.496 314.107 45.848 315.259 45.848Z" fill="white"/>
<defs>
<filter id="filter0_d_6_11" x="-3" y="-6" width="450" height="107" filterUnits="userSpaceOnUse" color-interpolation-filters="sRGB">
<feFlood flood-opacity="0" result="BackgroundImageFix"/>
<feColorMatrix in="SourceAlpha" type="matrix" values="0 0 0 0 0 0 0 0 0 0 0 0 0 0 0 0 0 0 127 0" result="hardAlpha"/>
<feOffset/>
<feGaussianBlur stdDeviation="1.5"/>
<feComposite in2="hardAlpha" operator="out"/>
<feColorMatrix type="matrix" values="0 0 0 0 0 0 0 0 0 0 0 0 0 0 0 0 0 0 0.25 0"/>
<feBlend mode="normal" in2="BackgroundImageFix" result="effect1_dropShadow_6_11"/>
<feBlend mode="normal" in="SourceGraphic" in2="effect1_dropShadow_6_11" result="shape"/>
</filter>
<clipPath id="clip0_6_11">
<rect width="108" height="98" fill="white" transform="translate(336)"/>
</clipPath>
</defs>
</svg>
