<svg width="15" height="12" viewBox="0 0 15 12" fill="none" xmlns="http://www.w3.org/2000/svg">
<path d="M12.6567 1.68916C12.3587 1.39108 12.005 1.15462 11.6156 0.993296C11.2263 0.831968 10.809 0.748932 10.3875 0.748932C9.96605 0.748932 9.54873 0.831968 9.15937 0.993296C8.77002 1.15462 8.41627 1.39108 8.11833 1.68916L7.5 2.3075L6.88167 1.68916C6.27984 1.08734 5.4636 0.749244 4.6125 0.749244C3.7614 0.749244 2.94515 1.08734 2.34333 1.68916C1.74151 2.29098 1.40341 3.10723 1.40341 3.95833C1.40341 4.80943 1.74151 5.62568 2.34333 6.2275L7.5 11.3842L12.6567 6.2275C12.9547 5.92956 13.1912 5.57581 13.3525 5.18645C13.5139 4.7971 13.5969 4.37978 13.5969 3.95833C13.5969 3.53688 13.5139 3.11956 13.3525 2.73021C13.1912 2.34086 12.9547 1.9871 12.6567 1.68916Z" stroke="black" stroke-opacity="0.5" stroke-linecap="round" stroke-linejoin="round"/>
</svg>
