<svg width="14" height="13" viewBox="0 0 14 13" fill="none" xmlns="http://www.w3.org/2000/svg">
<path d="M12.1567 2.18919C11.8587 1.89111 11.505 1.65465 11.1156 1.49333C10.7263 1.332 10.309 1.24896 9.8875 1.24896C9.46605 1.24896 9.04873 1.332 8.65937 1.49333C8.27002 1.65465 7.91627 1.89111 7.61833 2.18919L7 2.80753L6.38167 2.18919C5.77984 1.58737 4.9636 1.24927 4.1125 1.24927C3.2614 1.24927 2.44515 1.58737 1.84333 2.18919C1.24151 2.79101 0.903412 3.60726 0.903412 4.45836C0.903412 5.30946 1.24151 6.12571 1.84333 6.72753L7 11.8842L12.1567 6.72753C12.4547 6.42959 12.6912 6.07584 12.8525 5.68648C13.0139 5.29713 13.0969 4.87981 13.0969 4.45836C13.0969 4.03691 13.0139 3.61959 12.8525 3.23024C12.6912 2.84089 12.4547 2.48714 12.1567 2.18919Z" stroke="white" stroke-width="1.5" stroke-linecap="round" stroke-linejoin="round"/>
</svg>
