<svg width="19" height="19" viewBox="0 0 19 19" fill="none" xmlns="http://www.w3.org/2000/svg">
<path d="M5.35568 8.44946L1.36751 12.4004C1.25106 12.5159 1.15863 12.6533 1.09555 12.8047C1.03247 12.9561 1 13.1185 1 13.2825C1 13.4465 1.03247 13.6089 1.09555 13.7603C1.15863 13.9117 1.25106 14.0491 1.36751 14.1646L4.00144 16.7985C4.11694 16.915 4.25435 17.0074 4.40575 17.0705C4.55715 17.1336 4.71954 17.166 4.88356 17.166C5.04757 17.166 5.20996 17.1336 5.36136 17.0705C5.51276 17.0074 5.65018 16.915 5.76568 16.7985L9.71658 12.8104" stroke="white" stroke-width="2" stroke-linecap="round" stroke-linejoin="round"/>
<path d="M12.8102 9.71658L16.7611 5.76568C16.8775 5.65018 16.97 5.51276 17.033 5.36136C17.0961 5.20996 17.1286 5.04757 17.1286 4.88356C17.1286 4.71954 17.0961 4.55715 17.033 4.40575C16.97 4.25435 16.8775 4.11694 16.7611 4.00144L14.1644 1.36751C14.0489 1.25106 13.9115 1.15863 13.7601 1.09555C13.6087 1.03247 13.4463 1 13.2823 1C13.1183 1 12.9559 1.03247 12.8045 1.09555C12.6531 1.15863 12.5157 1.25106 12.4002 1.36751L8.44928 5.35568" stroke="white" stroke-width="2" stroke-linecap="round" stroke-linejoin="round"/>
<path d="M11.5678 6.59814L6.59811 11.5678" stroke="white" stroke-width="2" stroke-linecap="round" stroke-linejoin="round"/>
</svg>
